<?xml version="1.0" encoding="UTF-8" standalone="no"?>
<svg width="70px" height="91px" viewBox="0 0 70 91" version="1.1" xmlns="http://www.w3.org/2000/svg" xmlns:xlink="http://www.w3.org/1999/xlink">
    <!-- Generator: Sketch 46.2 (44496) - http://www.bohemiancoding.com/sketch -->
    <title>paper</title>
    <desc>Created with Sketch.</desc>
    <defs>
        <path d="M1.27897692e-13,0 L68,0 L68,88 C39.1377858,92.2837342 21.2517766,90.7590882 14.3419724,83.4260619 C7.43216813,76.0930357 2.65151067,48.2843484 1.27897692e-13,0 Z" id="path-1"></path>
        <path d="M4.26325641e-14,0 L68,0 L68,88 C35.0833192,93.5639807 18.6260369,91.1054248 18.628153,80.6243324 C8.42779784,82.9393567 2.2184135,56.0645792 4.26325641e-14,0 Z" id="path-2"></path>
        <path d="M34.8186916,13.9583333 C41.0045573,14.1321615 45.3398438,10.6217448 45.6223958,6.84451248 C45.9049479,3.06728017 43.0771322,2.23427391e-14 38.6588542,2.23427391e-14 C34.2405762,2.23427391e-14 32.5221354,-1.86137185e-16 24,9.28194328e-16 C24,4.418278 28.6328259,13.7845052 34.8186916,13.9583333 Z" id="path-3"></path>
        <path d="M58.8186916,13.9583333 C65.0045573,14.1321615 69.3398438,10.6217448 69.6223958,6.84451248 C69.9049479,3.06728017 67.0771322,-6.07897037e-15 62.6588542,-6.07897037e-15 C58.2405762,-6.07897037e-15 56.5221354,-2.86078466e-14 48,-2.74935151e-14 C48,4.418278 52.6328259,13.7845052 58.8186916,13.9583333 Z" id="path-4"></path>
    </defs>
    <g id="Page-1" stroke="none" stroke-width="1" fill="none" fill-rule="evenodd">
        <g id="Artboard" transform="translate(-8.000000, -82.000000)">
            <g id="paper" transform="translate(8.000000, 82.000000)">
                <g id="Rectangle">
                    <use fill="#79DDF5" fill-rule="evenodd" xlink:href="#path-1"></use>
                    <path stroke="#79DDF5" stroke-width="0.5" d="M0.264137774,0.25 C2.91435069,48.2950063 7.68724271,75.9991918 14.5239216,83.2546138 C21.3392407,90.4873676 39.0922956,92.017127 67.75,87.7842901 L67.75,0.25 L0.264137774,0.25 Z"></path>
                </g>
                <g id="Rectangle-Copy">
                    <use fill="#F1FEFF" fill-rule="evenodd" xlink:href="#path-2"></use>
                    <path stroke="#79DDF5" stroke-width="0.5" d="M0.260125044,0.250000092 C2.47759533,55.8880917 8.67191076,82.6275962 18.5728213,80.3805325 L18.8782162,80.3112215 L18.878153,80.6243829 C18.8760925,90.8303055 35.131007,93.280289 67.7499999,87.7886415 L67.75,0.25 L0.2601178,0.25 Z"></path>
                </g>
                <g id="lips" transform="translate(43.000000, 39.000000)" fill="#B32209">
                    <ellipse id="Oval-11" cx="7" cy="2.5" rx="2" ry="2.5"></ellipse>
                    <path d="M5.5,8 C7.43299662,8 7.73940732,6.94576815 9,5.5 C10.2605927,4.05423185 7.43299662,3 5.5,3 C3.56700338,3 0.398319218,4.12699566 2,5.5 C3.60168078,6.87300434 3.56700338,8 5.5,8 Z" id="Oval-11-Copy-2"></path>
                    <path d="M5.5,6.77241517 C7.52504408,6.77241517 9.35837742,5.68161011 11,3.5 C9.35837742,1.94782515 7.52504408,1.17173773 5.5,1.17173773 C3.47495592,1.17173773 1.64162258,1.94782515 0,3.5 C1.64162258,5.68161011 3.47495592,6.77241517 5.5,6.77241517 Z" id="Oval-11-Copy-3"></path>
                    <ellipse id="Oval-11-Copy" cx="4" cy="2.5" rx="2" ry="2.5"></ellipse>
                </g>
                <g id="sunnies" transform="translate(0.000000, 18.000000)">
                    <g id="Oval-10">
                        <use fill="#480404" fill-rule="evenodd" xlink:href="#path-3"></use>
                        <path stroke="#746A06" stroke-width="1" d="M24.5146703,0.5 C24.8225109,5.84474278 29.9225213,13.3205494 34.8327365,13.4585306 C40.4536981,13.6164845 44.8449512,10.5347919 45.1237889,6.80721469 C45.3912093,3.23226637 42.6921419,0.5 38.6588542,0.5 L33.0157145,0.5 C29.7591011,0.5 29.6571457,0.5 24.5146703,0.5 Z"></path>
                    </g>
                    <g id="Oval-10-Copy" transform="translate(58.820896, 6.982265) scale(-1, 1) translate(-58.820896, -6.982265) ">
                        <use fill="#480404" fill-rule="evenodd" xlink:href="#path-4"></use>
                        <path stroke="#746A06" stroke-width="1" d="M48.5146703,0.5 C48.8225109,5.84474278 53.9225213,13.3205494 58.8327365,13.4585306 C64.4536981,13.6164845 68.8449512,10.5347919 69.1237889,6.80721469 C69.3912093,3.23226637 66.6921419,0.5 62.6588542,0.5 L57.0157145,0.5 C53.7591011,0.5 53.6571457,0.5 48.5146703,0.5 Z"></path>
                    </g>
                    <path d="M0.876789567,8.01265078 C-1.69800709,7.2177289 1.90828794,1.52232733 5.11282768,0.507442444 C7.24918751,-0.169147481 13.7365069,-0.169147481 24.5747859,0.507442444 L25.5699997,4.00632539 C14.2682273,2.49708745 7.76361217,1.85596675 6.05615424,2.08296328 C3.49496734,2.42345807 3.45158623,8.80757265 0.876789567,8.01265078 Z" id="Path-2" fill="#746A06"></path>
                    <path d="M44.6604818,3.99544271 C45.0011575,3.32877604 45.7386792,2.99544271 46.8730469,2.99544271 C48.0074145,2.99544271 48.6740812,3.32877604 48.8730469,3.99544271 L48.8730469,6.64648438 C48.7961887,5.97981771 48.1557807,5.64648438 46.9518229,5.64648438 C45.7478652,5.64648438 45.1693061,5.97981771 45.2161458,6.64648438 L44.6604818,3.99544271 Z" id="Path-3" fill="#746A06"></path>
                </g>
            </g>
        </g>
    </g>
</svg>