<?xml version="1.0" encoding="UTF-8" standalone="no"?>
<svg width="110px" height="77px" viewBox="0 0 110 77" version="1.1" xmlns="http://www.w3.org/2000/svg" xmlns:xlink="http://www.w3.org/1999/xlink">
    <!-- Generator: Sketch 46.2 (44496) - http://www.bohemiancoding.com/sketch -->
    <title>rock</title>
    <desc>Created with Sketch.</desc>
    <defs>
        <path d="M49.9012124,75.6284227 C49.2445984,75.7935126 48.4849584,75.8794202 47.6095185,75.8794202 C36.439114,75.8794202 0.284161451,81.617713 0.0857773151,58.0315204 C-0.0709358917,39.3996481 12.2599266,28.0547183 22.9534422,24.1107446 C22.734654,22.4882201 23.1039522,20.9863344 24.2191443,19.7195122 C30.8709677,12.1632558 43.840041,0.471312452 56.7741935,0.471312452 C64.5947743,0.471312452 69.1849271,4.89997011 71.592004,10.8092249 C80.4173376,12.1007469 87.1866591,16.6336406 91.9733321,22.8963499 C102.19884,30.1479976 109.673427,48.0613205 109.673427,58.0315204 C109.673427,67.9307637 101.351402,71.638893 91.5593959,69.2414081 C83.8220595,74.3246746 71.909971,75.8794202 58.5483871,75.8794202 C55.5847742,75.8794202 52.6924703,75.8029334 49.9012124,75.6284227 Z" id="path-1"></path>
        <filter x="-4.6%" y="-6.6%" width="109.1%" height="113.2%" filterUnits="objectBoundingBox" id="filter-2">
            <feMorphology radius="1" operator="erode" in="SourceAlpha" result="shadowSpreadInner1"></feMorphology>
            <feGaussianBlur stdDeviation="4" in="shadowSpreadInner1" result="shadowBlurInner1"></feGaussianBlur>
            <feOffset dx="0" dy="1" in="shadowBlurInner1" result="shadowOffsetInner1"></feOffset>
            <feComposite in="shadowOffsetInner1" in2="SourceAlpha" operator="arithmetic" k2="-1" k3="1" result="shadowInnerInner1"></feComposite>
            <feColorMatrix values="0 0 0 0 0.305882353   0 0 0 0 0.325490196   0 0 0 0 0.337254902  0 0 0 0.150050951 0" type="matrix" in="shadowInnerInner1"></feColorMatrix>
        </filter>
        <path d="M23.7946308,30.7707988 C26.8433549,25.3422784 32.2727848,19.5888492 37.8007888,16.3174306 C39.7928202,9.8063586 43.6099176,3.75609756 49.1029504,3.75609756 C52.4357441,3.75609756 60.457978,0.902357259 65.6751108,6.43850047 C73.649228,14.9002086 75.9999311,12.7994804 75.9999311,17.8154693 C75.9999311,24.2287485 66.5814511,29.3981248 58.4128152,31.415335 C59.064718,35.0323015 59.3381908,38.5262939 59.3381908,41.1465016 C59.3381908,42.259279 59.1223303,43.3443236 58.7246094,44.3909087 C59.8949193,44.2200687 61.1735704,44.1341463 62.5655432,44.1341463 C64.1332856,44.1341463 65.7805347,44.3057746 67.4457227,44.6283246 C67.4282389,44.4610817 67.4193548,44.2963008 67.4193548,44.1341463 C67.4193548,35.8364047 71.9019605,21.597561 80.3287568,21.597561 C83.6615506,21.597561 91.8453891,25.1778425 97.0625219,30.7139857 C105.036639,39.1756938 109.903156,51.4393324 109.903156,56.4553213 C109.903156,64.7530629 107.536339,67.607225 99.1095429,67.607225 C96.0526881,67.607225 91.043478,65.6102944 85.9006154,62.66913 C83.5755454,69.2453138 71.7162011,70.1898085 62.5655432,70.1898085 C52.3749988,70.1898085 48.2580645,66.3719488 48.2580645,57.5555983 C48.2580645,56.2421163 48.3494431,55.0221063 48.5386706,53.8968707 C45.8500794,55.1881223 42.9146254,56.1335997 40.0483222,56.6336082 C40.1363897,57.9576133 40.1769005,59.1652857 40.1769005,60.2021 C40.1769005,69.0184504 26.6270554,70.1898085 16.436511,70.1898085 C6.24596657,70.1898085 2.12903226,66.3719488 2.12903226,57.5555983 C2.12903226,49.6446465 13.9950911,33.9175649 23.7946308,30.7707988 Z" id="path-3"></path>
        <filter x="-6.5%" y="-10.4%" width="113.0%" height="120.8%" filterUnits="objectBoundingBox" id="filter-4">
            <feGaussianBlur stdDeviation="6.5" in="SourceAlpha" result="shadowBlurInner1"></feGaussianBlur>
            <feOffset dx="0" dy="1" in="shadowBlurInner1" result="shadowOffsetInner1"></feOffset>
            <feComposite in="shadowOffsetInner1" in2="SourceAlpha" operator="arithmetic" k2="-1" k3="1" result="shadowInnerInner1"></feComposite>
            <feColorMatrix values="0 0 0 0 0.20774543   0 0 0 0 0.27689935   0 0 0 0 0.364051871  0 0 0 0.325860507 0" type="matrix" in="shadowInnerInner1"></feColorMatrix>
        </filter>
        <path d="M49.9012124,75.6284227 C49.2445984,75.7935126 48.4849584,75.8794202 47.6095185,75.8794202 C36.439114,75.8794202 0.284161451,81.617713 0.0857773151,58.0315204 C-0.0709358917,39.3996481 12.2599266,28.0547183 22.9534422,24.1107446 C22.734654,22.4882201 23.1039522,20.9863344 24.2191443,19.7195122 C30.8709677,12.1632558 43.840041,0.471312452 56.7741935,0.471312452 C64.5947743,0.471312452 69.1849271,4.89997011 71.592004,10.8092249 C80.4173376,12.1007469 87.1866591,16.6336406 91.9733321,22.8963499 C102.19884,30.1479976 109.673427,48.0613205 109.673427,58.0315204 C109.673427,67.9307637 101.351402,71.638893 91.5593959,69.2414081 C83.8220595,74.3246746 71.909971,75.8794202 58.5483871,75.8794202 C55.5847742,75.8794202 52.6924703,75.8029334 49.9012124,75.6284227 Z" id="path-5"></path>
        <filter x="-4.6%" y="-6.6%" width="109.1%" height="113.2%" filterUnits="objectBoundingBox" id="filter-6">
            <feMorphology radius="1" operator="erode" in="SourceAlpha" result="shadowSpreadInner1"></feMorphology>
            <feGaussianBlur stdDeviation="4" in="shadowSpreadInner1" result="shadowBlurInner1"></feGaussianBlur>
            <feOffset dx="0" dy="1" in="shadowBlurInner1" result="shadowOffsetInner1"></feOffset>
            <feComposite in="shadowOffsetInner1" in2="SourceAlpha" operator="arithmetic" k2="-1" k3="1" result="shadowInnerInner1"></feComposite>
            <feColorMatrix values="0 0 0 0 0.305882353   0 0 0 0 0.325490196   0 0 0 0 0.337254902  0 0 0 0.5 0" type="matrix" in="shadowInnerInner1"></feColorMatrix>
        </filter>
        <path d="M0.880677608,11.5384615 C0.318635614,10.438016 0,9.18101303 0,7.84615385 C0,3.51284273 3.35786438,0 7.5,0 C11.6421356,0 15,3.51284273 15,7.84615385 C15,9.18101303 14.6813644,10.438016 14.1193224,11.5384615 C12.8568252,9.06656564 10.3661673,7.38461538 7.5,7.38461538 C4.63383271,7.38461538 2.14317475,9.06656564 0.880677608,11.5384615 Z" id="path-7"></path>
        <path d="M27.3512658,11.5384615 C26.7892238,10.438016 26.4705882,9.18101303 26.4705882,7.84615385 C26.4705882,3.51284273 29.8284526,0 33.9705882,0 C38.1127239,0 41.4705882,3.51284273 41.4705882,7.84615385 C41.4705882,9.18101303 41.1519526,10.438016 40.5899106,11.5384615 C39.3274135,9.06656564 36.8367555,7.38461538 33.9705882,7.38461538 C31.1044209,7.38461538 28.613763,9.06656564 27.3512658,11.5384615 Z" id="path-9"></path>
    </defs>
    <g id="Page-1" stroke="none" stroke-width="1" fill="none" fill-rule="evenodd">
        <g id="Artboard" transform="translate(-27.000000, -79.000000)">
            <g id="rock" transform="translate(27.000000, 79.000000)">
                <g id="rockbody">
                    <g id="Combined-Shape">
                        <use fill="#B8C0C1" fill-rule="evenodd" style="mix-blend-mode: overlay;" xlink:href="#path-1"></use>
                        <use fill="black" fill-opacity="1" filter="url(#filter-2)" xlink:href="#path-1"></use>
                    </g>
                    <g id="Combined-Shape">
                        <use fill-opacity="0.0619904891" fill="#2A5A60" fill-rule="evenodd" style="mix-blend-mode: overlay;" xlink:href="#path-3"></use>
                        <use fill="black" fill-opacity="1" filter="url(#filter-4)" xlink:href="#path-3"></use>
                    </g>
                    <g id="Combined-Shape-Copy">
                        <use fill-opacity="0.574445199" fill="#8AA6AA" fill-rule="evenodd" style="mix-blend-mode: overlay;" xlink:href="#path-5"></use>
                        <use fill="black" fill-opacity="1" filter="url(#filter-6)" xlink:href="#path-5"></use>
                    </g>
                </g>
                <path d="M38.4241834,40.6451872 C38.1457303,41.1783472 38,41.7286569 38,42.2913746 C38,47.1233219 48.745166,56 62,56 C75.254834,56 86,47.1233219 86,42.2913746 C86,41.4985304 85.7107026,40.7303179 85.1684899,40 C83.9900051,43.411975 73.9065513,49.5279535 61.641791,49.5279535 C50.1170357,49.5279535 40.5183057,44.127736 38.4241834,40.6451872 Z" id="smile" fill="#691B05"></path>
                <g id="eyes" transform="translate(39.000000, 20.000000)">
                    <mask id="mask-8" fill="white">
                        <use xlink:href="#path-7"></use>
                    </mask>
                    <use id="Mask" fill="#FFFFFF" xlink:href="#path-7"></use>
                    <ellipse id="Oval-9" fill="#030303" mask="url(#mask-8)" cx="8.38235294" cy="6" rx="3.97058824" ry="4.15384615"></ellipse>
                    <mask id="mask-10" fill="white">
                        <use xlink:href="#path-9"></use>
                    </mask>
                    <use id="Mask" fill="#FFFFFF" xlink:href="#path-9"></use>
                    <ellipse id="Oval-9-Copy" fill="#030303" mask="url(#mask-10)" cx="34.8529412" cy="6" rx="3.97058824" ry="4.15384615"></ellipse>
                </g>
            </g>
        </g>
    </g>
</svg>