<?xml version="1.0" encoding="UTF-8" standalone="no"?>
<svg width="38px" height="104px" viewBox="0 0 38 104" version="1.1" xmlns="http://www.w3.org/2000/svg" xmlns:xlink="http://www.w3.org/1999/xlink">
    <!-- Generator: Sketch 46.2 (44496) - http://www.bohemiancoding.com/sketch -->
    <title>scissy</title>
    <desc>Created with Sketch.</desc>
    <defs>
        <circle id="path-1" cx="31" cy="82" r="6"></circle>
        <circle id="path-2" cx="12" cy="82" r="6"></circle>
    </defs>
    <g id="Page-1" stroke="none" stroke-width="1" fill="none" fill-rule="evenodd">
        <g id="Artboard" transform="translate(-37.000000, -77.000000)">
            <g id="scissy" transform="translate(34.000000, 77.000000)">
                <path d="M15.5,97.5 C18.5333068,100.338942 20.7833068,101.758413 22.25,101.758413 C23.7166932,101.758413 25.9666932,100.338942 29,97.5" id="smile" stroke="#E70D2E" stroke-width="3" stroke-linecap="round"></path>
                <g id="Oval-15-Copy">
                    <use fill="#0C0C0C" fill-rule="evenodd" xlink:href="#path-1"></use>
                    <circle stroke="#060605" stroke-width="1" cx="31" cy="82" r="5.5"></circle>
                </g>
                <polygon id="Star-Copy" fill="#F9F5EE" points="33.5 79.25 32.6183221 79.7135255 32.7867076 78.7317627 32.0734152 78.0364745 33.0591611 77.8932373 33.5 77 33.9408389 77.8932373 34.9265848 78.0364745 34.2132924 78.7317627 34.3816779 79.7135255"></polygon>
                <g id="Oval-15">
                    <use fill="#0C0C0C" fill-rule="evenodd" xlink:href="#path-2"></use>
                    <circle stroke="#060605" stroke-width="1" cx="12" cy="82" r="5.5"></circle>
                </g>
                <polygon id="Star" fill="#F9F5EE" points="12.5 79.25 11.6183221 79.7135255 11.7867076 78.7317627 11.0734152 78.0364745 12.0591611 77.8932373 12.5 77 12.9408389 77.8932373 13.9265848 78.0364745 13.2132924 78.7317627 13.3816779 79.7135255"></polygon>
                <g id="scissors">
                    <path d="M10.3057409,66.3987036 L17.6923828,49.8144531 L21.8193359,1.23339844 C22.8109101,4.06486812 23.3066972,5.88583167 23.3066972,6.69628906 C23.3066972,7.50674646 23.3066972,22.8348715 23.3066972,52.6806641 L17.6923828,69.5611989 C16.6459924,67.7144842 15.8172695,66.6603191 15.2062142,66.3987036 C14.595159,66.1370882 12.9616679,66.1370882 10.3057409,66.3987036 Z" id="Path-4" fill="#BDBAB6"></path>
                    <path d="M19.357783,66.5336814 L26.4464947,48.8144531 L29.2995786,5.22363281 L31.1674985,0.461425781 C31.346535,5.81714677 31.4360532,8.90023596 31.4360532,9.71069336 C31.4360532,10.5211508 32.2057082,24.1638216 33.7450182,50.638706 L27.68748,68.3447266 L19.357783,66.5336814 Z" id="Path-4-Copy" fill="#ADABA8" transform="translate(26.551401, 34.403076) scale(-1, 1) translate(-26.551401, -34.403076) "></path>
                    <circle id="Oval-14" fill="#807D79" cx="23" cy="50" r="2"></circle>
                    <path d="M11.5,101 C7.35786438,101 4,92.2695526 4,81.5 C4,70.7304474 7.35786438,62 11.5,62 C15.6421356,62 19,70.7304474 19,81.5 C19,92.2695526 15.6421356,101 11.5,101 Z M11.6736482,94.9848078 C13.0543601,94.9848078 14.1736482,88.7167943 14.1736482,80.9848078 C14.1736482,73.2528213 13.0543601,66.9848078 11.6736482,66.9848078 C10.2929363,66.9848078 9.17364818,73.2528213 9.17364818,80.9848078 C9.17364818,88.7167943 10.2929363,94.9848078 11.6736482,94.9848078 Z" id="Combined-Shape" fill="#691B05" transform="translate(11.500000, 81.500000) rotate(10.000000) translate(-11.500000, -81.500000) "></path>
                    <path d="M32.5,101 C28.3578644,101 25,92.2695526 25,81.5 C25,70.7304474 28.3578644,62 32.5,62 C36.6421356,62 40,70.7304474 40,81.5 C40,92.2695526 36.6421356,101 32.5,101 Z M32.6736482,94.9848078 C34.0543601,94.9848078 35.1736482,88.7167943 35.1736482,80.9848078 C35.1736482,73.2528213 34.0543601,66.9848078 32.6736482,66.9848078 C31.2929363,66.9848078 30.1736482,73.2528213 30.1736482,80.9848078 C30.1736482,88.7167943 31.2929363,94.9848078 32.6736482,94.9848078 Z" id="Combined-Shape-Copy-2" fill="#691B05" transform="translate(32.500000, 81.500000) scale(-1, 1) rotate(10.000000) translate(-32.500000, -81.500000) "></path>
                </g>
            </g>
        </g>
    </g>
</svg>